<svg xmlns="http://www.w3.org/2000/svg" width="600" height="300" viewBox="0 0 600 300">
  <rect width="600" height="300" fill="#1a1a1a"/>
  <!-- Transmission network abstraction -->
  <!-- Central cluster -->
  <circle cx="300" cy="140" r="12" fill="#66bb6a" opacity="0.3"/>
  <circle cx="300" cy="140" r="6" fill="#66bb6a" opacity="0.7"/>
  <!-- Connected nodes -->
  <circle cx="220" cy="100" r="8" fill="#66bb6a" opacity="0.2"/>
  <circle cx="220" cy="100" r="4" fill="#66bb6a" opacity="0.6"/>
  <circle cx="380" cy="100" r="8" fill="#66bb6a" opacity="0.2"/>
  <circle cx="380" cy="100" r="4" fill="#66bb6a" opacity="0.6"/>
  <circle cx="240" cy="190" r="8" fill="#66bb6a" opacity="0.2"/>
  <circle cx="240" cy="190" r="4" fill="#66bb6a" opacity="0.6"/>
  <circle cx="360" cy="190" r="8" fill="#66bb6a" opacity="0.2"/>
  <circle cx="360" cy="190" r="4" fill="#66bb6a" opacity="0.6"/>
  <circle cx="170" cy="150" r="8" fill="#2e7d32" opacity="0.2"/>
  <circle cx="170" cy="150" r="4" fill="#2e7d32" opacity="0.6"/>
  <circle cx="430" cy="150" r="8" fill="#2e7d32" opacity="0.2"/>
  <circle cx="430" cy="150" r="4" fill="#2e7d32" opacity="0.6"/>
  <!-- Outer nodes -->
  <circle cx="150" cy="80" r="3" fill="#4caf50" opacity="0.5"/>
  <circle cx="180" cy="210" r="3" fill="#4caf50" opacity="0.5"/>
  <circle cx="450" cy="80" r="3" fill="#4caf50" opacity="0.5"/>
  <circle cx="460" cy="200" r="3" fill="#4caf50" opacity="0.5"/>
  <circle cx="300" cy="60" r="3" fill="#4caf50" opacity="0.5"/>
  <circle cx="300" cy="230" r="3" fill="#4caf50" opacity="0.5"/>
  <!-- Transmission lines -->
  <line x1="300" y1="140" x2="220" y2="100" stroke="#66bb6a" stroke-width="1" opacity="0.3"/>
  <line x1="300" y1="140" x2="380" y2="100" stroke="#66bb6a" stroke-width="1" opacity="0.3"/>
  <line x1="300" y1="140" x2="240" y2="190" stroke="#66bb6a" stroke-width="1" opacity="0.3"/>
  <line x1="300" y1="140" x2="360" y2="190" stroke="#66bb6a" stroke-width="1" opacity="0.3"/>
  <line x1="300" y1="140" x2="170" y2="150" stroke="#66bb6a" stroke-width="1" opacity="0.3"/>
  <line x1="300" y1="140" x2="430" y2="150" stroke="#66bb6a" stroke-width="1" opacity="0.3"/>
  <line x1="220" y1="100" x2="150" y2="80" stroke="#4caf50" stroke-width="0.5" opacity="0.2"/>
  <line x1="170" y1="150" x2="180" y2="210" stroke="#4caf50" stroke-width="0.5" opacity="0.2"/>
  <line x1="380" y1="100" x2="450" y2="80" stroke="#4caf50" stroke-width="0.5" opacity="0.2"/>
  <line x1="430" y1="150" x2="460" y2="200" stroke="#4caf50" stroke-width="0.5" opacity="0.2"/>
  <line x1="300" y1="140" x2="300" y2="60" stroke="#4caf50" stroke-width="0.5" opacity="0.2"/>
  <line x1="300" y1="140" x2="300" y2="230" stroke="#4caf50" stroke-width="0.5" opacity="0.2"/>
  <!-- Vaccination indicators -->
  <rect x="285" y="125" width="30" height="30" rx="3" fill="none" stroke="#66bb6a" stroke-width="0.5" opacity="0.2"/>
  <!-- Label -->
  <text x="300" y="275" text-anchor="middle" fill="#555" font-family="sans-serif" font-size="11">Delta Variant Transmission Network | Provincetown</text>
</svg>