<svg xmlns="http://www.w3.org/2000/svg" width="600" height="300" viewBox="0 0 600 300">
  <rect width="600" height="300" fill="#1a1a1a"/>
  <!-- Massachusetts outline abstraction -->
  <path d="M120,180 Q160,120 220,130 Q280,100 340,120 Q380,110 420,130 Q440,125 460,140 L470,135 L480,145 L465,155 Q450,170 420,165 Q380,180 340,170 Q280,190 220,180 Q160,200 120,180Z" fill="none" stroke="#66bb6a" stroke-width="2" opacity="0.6"/>
  <!-- Data points -->
  <circle cx="200" cy="160" r="4" fill="#66bb6a" opacity="0.8"/>
  <circle cx="250" cy="145" r="6" fill="#66bb6a" opacity="0.6"/>
  <circle cx="300" cy="150" r="8" fill="#66bb6a" opacity="0.5"/>
  <circle cx="350" cy="140" r="5" fill="#66bb6a" opacity="0.7"/>
  <circle cx="380" cy="155" r="10" fill="#66bb6a" opacity="0.4"/>
  <circle cx="420" cy="145" r="7" fill="#66bb6a" opacity="0.6"/>
  <circle cx="440" cy="140" r="3" fill="#66bb6a" opacity="0.9"/>
  <!-- Connection lines -->
  <line x1="200" y1="160" x2="250" y2="145" stroke="#66bb6a" stroke-width="0.5" opacity="0.3"/>
  <line x1="250" y1="145" x2="300" y2="150" stroke="#66bb6a" stroke-width="0.5" opacity="0.3"/>
  <line x1="300" y1="150" x2="350" y2="140" stroke="#66bb6a" stroke-width="0.5" opacity="0.3"/>
  <line x1="350" y1="140" x2="380" y2="155" stroke="#66bb6a" stroke-width="0.5" opacity="0.3"/>
  <line x1="380" y1="155" x2="420" y2="145" stroke="#66bb6a" stroke-width="0.5" opacity="0.3"/>
  <!-- Grid lines -->
  <line x1="100" y1="100" x2="100" y2="220" stroke="#333" stroke-width="0.5"/>
  <line x1="100" y1="220" x2="500" y2="220" stroke="#333" stroke-width="0.5"/>
  <!-- Label -->
  <text x="300" y="260" text-anchor="middle" fill="#555" font-family="sans-serif" font-size="11">130,000+ SARS-CoV-2 Genomes | Massachusetts</text>
</svg>